<svg xmlns="http://www.w3.org/2000/svg" viewBox="0 0 16 16"><path d="M3.62,7.53A1.62,1.62,0,0,0,2.35,7a1.41,1.41,0,0,0-.69.16,1.53,1.53,0,0,0-.44.34h0V5.15H0v5.59H1.12v-.48h0a1.15,1.15,0,0,0,.51.43,1.65,1.65,0,0,0,.7.15,1.63,1.63,0,0,0,.74-.16,1.7,1.7,0,0,0,.55-.43A1.9,1.9,0,0,0,4,9.63a2.33,2.33,0,0,0,.12-.74A2.23,2.23,0,0,0,4,8.15,1.92,1.92,0,0,0,3.62,7.53ZM2.87,9.24a.9.9,0,0,1-.17.31.82.82,0,0,1-.65.3.81.81,0,0,1-.37-.08.88.88,0,0,1-.28-.21,1,1,0,0,1-.18-.3,1,1,0,0,1,0-.7,1,1,0,0,1,.18-.3A.88.88,0,0,1,1.68,8,.82.82,0,0,1,2,7.95.83.83,0,0,1,2.43,8a.85.85,0,0,1,.44.51,1.12,1.12,0,0,1,.06.35A1.15,1.15,0,0,1,2.87,9.24Z"/><rect x="6.19" y="7.06" width="1.21" height="3.69"/><rect x="4.43" y="5.15" width="1.24" height="5.59"/><path d="M7.29,5.41a.68.68,0,0,0-.22-.14.72.72,0,0,0-.27-.05.67.67,0,0,0-.27.06.8.8,0,0,0-.22.14.6.6,0,0,0-.15.21.65.65,0,0,0-.05.26.63.63,0,0,0,.2.47.68.68,0,0,0,.5.2.72.72,0,0,0,.27-.05.66.66,0,0,0,.37-.35.65.65,0,0,0,0-.53A.68.68,0,0,0,7.29,5.41Z"/><polygon points="14.52 8.72 15.94 7.06 14.47 7.06 13.29 8.55 13.27 8.55 13.27 5.15 12.05 5.15 12.05 10.75 13.27 10.75 13.27 8.98 13.29 8.98 14.5 10.75 16 10.75 14.52 8.72"/><path d="M11.27,7.43a1.2,1.2,0,0,0-.42-.34A1.36,1.36,0,0,0,10.22,7,1.24,1.24,0,0,0,9.86,7a1.57,1.57,0,0,0-.31.13,1,1,0,0,0-.25.2,1.22,1.22,0,0,0-.17.23h0V7.06H7.93v3.69H9.15v-2a1.1,1.1,0,0,1,0-.3.79.79,0,0,1,.12-.26A.58.58,0,0,1,9.51,8,.61.61,0,0,1,9.8,8a.53.53,0,0,1,.27.06.44.44,0,0,1,.17.17.82.82,0,0,1,.09.25,1.63,1.63,0,0,1,0,.3v2h1.22V8.47a2.2,2.2,0,0,0-.07-.55A1.36,1.36,0,0,0,11.27,7.43Z"/></svg>
