<?xml version="1.0" encoding="utf-8"?>
<svg version="1.1" xmlns="http://www.w3.org/2000/svg" xmlns:xlink="http://www.w3.org/1999/xlink" x="0px" y="0px"
	 viewBox="0 0 16 16" style="enable-background:new 0 0 16 16;" xml:space="preserve">
<g>
	<path d="M3.23,7.93C3.187,7.879,3.132,7.837,3.068,7.804C3.003,7.772,2.928,7.756,2.843,7.756c-0.082,0-0.156,0.016-0.22,0.048
		c-0.065,0.032-0.12,0.075-0.165,0.128c-0.046,0.053-0.081,0.113-0.106,0.18C2.328,8.18,2.315,8.249,2.315,8.319
		c0,0.07,0.012,0.139,0.037,0.207c0.025,0.068,0.06,0.128,0.106,0.18c0.045,0.053,0.1,0.095,0.165,0.128
		c0.065,0.032,0.138,0.048,0.22,0.048c0.085,0,0.16-0.016,0.224-0.048C3.132,8.802,3.187,8.759,3.23,8.706
		C3.274,8.654,3.307,8.593,3.33,8.524c0.022-0.069,0.033-0.139,0.033-0.209c0-0.07-0.011-0.139-0.033-0.207
		C3.307,8.041,3.274,7.981,3.23,7.93z"/>
	<path d="M0,0v16h16V0H0z M3.987,8.755C3.94,8.896,3.872,9.02,3.783,9.127C3.693,9.234,3.584,9.32,3.455,9.384
		c-0.129,0.065-0.276,0.097-0.44,0.097c-0.147,0-0.285-0.03-0.416-0.09c-0.131-0.06-0.231-0.146-0.301-0.257H2.289v0.286H1.625
		V6.093h0.722v1.368h0.009c0.062-0.073,0.148-0.141,0.26-0.202c0.111-0.062,0.248-0.092,0.409-0.092
		c0.158,0,0.301,0.031,0.429,0.092S3.689,7.404,3.778,7.51c0.089,0.106,0.158,0.228,0.207,0.367
		c0.048,0.139,0.073,0.285,0.073,0.438C4.058,8.467,4.034,8.614,3.987,8.755z M4.995,9.419H4.26V6.093h0.735V9.419z M6.029,9.419
		H5.307V7.228h0.722V9.419z M6.049,6.685C6.027,6.733,5.997,6.775,5.961,6.81C5.924,6.845,5.88,6.873,5.829,6.894
		C5.777,6.914,5.724,6.924,5.668,6.924c-0.117,0-0.216-0.039-0.295-0.117C5.294,6.73,5.254,6.637,5.254,6.528
		c0-0.053,0.01-0.103,0.031-0.152c0.021-0.048,0.05-0.09,0.088-0.125c0.038-0.035,0.082-0.064,0.132-0.086
		c0.05-0.022,0.104-0.033,0.163-0.033c0.056,0,0.109,0.01,0.161,0.031s0.095,0.048,0.132,0.084c0.037,0.035,0.066,0.077,0.088,0.125
		c0.022,0.048,0.033,0.101,0.033,0.156C6.082,6.584,6.071,6.636,6.049,6.685z M8.502,9.419H7.776V8.222
		c0-0.062-0.005-0.12-0.015-0.176C7.75,7.991,7.733,7.942,7.71,7.899C7.686,7.857,7.653,7.823,7.611,7.798
		C7.568,7.773,7.514,7.76,7.45,7.76c-0.065,0-0.121,0.013-0.169,0.037C7.232,7.823,7.192,7.857,7.16,7.901
		C7.127,7.945,7.103,7.996,7.087,8.053S7.063,8.17,7.063,8.231v1.188H6.337V7.228h0.7v0.304h0.009
		c0.026-0.047,0.061-0.093,0.103-0.139c0.042-0.045,0.092-0.084,0.15-0.117c0.057-0.032,0.119-0.059,0.187-0.079
		c0.067-0.021,0.139-0.031,0.216-0.031c0.147,0,0.271,0.026,0.374,0.079S8.26,7.367,8.323,7.45C8.386,7.534,8.432,7.63,8.46,7.738
		c0.028,0.109,0.042,0.217,0.042,0.326V9.419z M10.244,9.419L9.527,8.368H9.514v1.052H8.788V6.093h0.726v2.024h0.013l0.7-0.889
		h0.876l-0.845,0.99l0.88,1.201H10.244z M13.654,8.24c0,0.176-0.021,0.341-0.062,0.495s-0.109,0.288-0.202,0.403
		c-0.094,0.114-0.216,0.205-0.367,0.271c-0.151,0.066-0.337,0.099-0.557,0.099c-0.22,0-0.406-0.033-0.557-0.099
		c-0.151-0.066-0.274-0.156-0.367-0.271c-0.094-0.114-0.161-0.249-0.202-0.403c-0.041-0.154-0.062-0.319-0.062-0.495V6.304h0.097
		v1.918c0,0.123,0.012,0.255,0.037,0.394c0.025,0.139,0.076,0.268,0.154,0.387c0.078,0.119,0.188,0.218,0.33,0.297
		c0.142,0.079,0.332,0.119,0.57,0.119c0.232,0,0.419-0.038,0.561-0.114c0.142-0.076,0.253-0.174,0.332-0.293
		c0.079-0.119,0.132-0.248,0.158-0.387c0.026-0.139,0.04-0.273,0.04-0.403V6.304h0.097V8.24z M14.375,9.419h-0.097V6.304h0.097
		V9.419z"/>
</g>
</svg>
